<mxfile host="app.diagrams.net" modified="2021-03-15T18:21:57.394Z" agent="5.0 (Windows NT 10.0; Win64; x64) AppleWebKit/537.36 (KHTML, like Gecko) Chrome/89.0.4389.82 Safari/537.36" etag="wf1hU1jsYxLt5iilwC3c" version="14.4.8" type="github">
  <diagram id="leChNaF93deG1SGcRm8q" name="Page-1">
    <mxGraphModel dx="1248" dy="654" grid="1" gridSize="10" guides="1" tooltips="1" connect="1" arrows="1" fold="1" page="1" pageScale="1" pageWidth="1100" pageHeight="850" math="0" shadow="0">
      <root>
        <mxCell id="0" />
        <mxCell id="1" parent="0" />
        <mxCell id="Y9Um63weE-IarXxQb-LT-1" value="&lt;font style=&quot;font-size: 15px&quot;&gt;&lt;b&gt;User&lt;/b&gt;&lt;/font&gt;" style="rounded=0;whiteSpace=wrap;html=1;fillColor=#dae8fc;strokeColor=#6c8ebf;" parent="1" vertex="1">
          <mxGeometry x="80" y="80" width="160" height="40" as="geometry" />
        </mxCell>
        <mxCell id="Y9Um63weE-IarXxQb-LT-3" value="&lt;b&gt;&lt;font style=&quot;font-size: 15px&quot;&gt;Booked Slots&lt;/font&gt;&lt;/b&gt;" style="rounded=0;whiteSpace=wrap;html=1;fillColor=#ffe6cc;strokeColor=#d79b00;" parent="1" vertex="1">
          <mxGeometry x="280" y="80" width="160" height="40" as="geometry" />
        </mxCell>
        <mxCell id="Y9Um63weE-IarXxQb-LT-4" value="&lt;div style=&quot;text-align: justify ; font-size: 14px&quot;&gt;&lt;span&gt;&lt;font style=&quot;font-size: 14px&quot;&gt;&lt;b&gt;{&amp;nbsp;&lt;/b&gt;&lt;/font&gt;&lt;/span&gt;&lt;/div&gt;&lt;font style=&quot;font-size: 14px&quot;&gt;&lt;b&gt;&lt;div style=&quot;text-align: justify&quot;&gt;&lt;span&gt;&amp;nbsp; userId: &#39;1111&#39;,&lt;/span&gt;&lt;/div&gt;&lt;div style=&quot;text-align: justify&quot;&gt;&lt;span&gt;&amp;nbsp; time: &#39;2:30&#39;,&lt;/span&gt;&lt;/div&gt;&lt;div style=&quot;text-align: justify&quot;&gt;&lt;span&gt;&amp;nbsp; date: &#39;20/7/2020&#39;&amp;nbsp; &amp;nbsp;&lt;/span&gt;&lt;/div&gt;&lt;div style=&quot;text-align: justify&quot;&gt;&lt;span&gt;}&lt;/span&gt;&lt;/div&gt;&lt;/b&gt;&lt;/font&gt;" style="rounded=0;whiteSpace=wrap;html=1;align=center;" parent="1" vertex="1">
          <mxGeometry x="280" y="120" width="160" height="200" as="geometry" />
        </mxCell>
        <mxCell id="Y9Um63weE-IarXxQb-LT-5" value="&lt;div style=&quot;text-align: justify ; font-size: 14px&quot;&gt;&lt;span&gt;&lt;font style=&quot;font-size: 14px&quot;&gt;&lt;b&gt;{&amp;nbsp;&lt;/b&gt;&lt;/font&gt;&lt;/span&gt;&lt;/div&gt;&lt;font style=&quot;font-size: 14px&quot;&gt;&lt;b&gt;&lt;div style=&quot;text-align: justify&quot;&gt;&lt;span&gt;&amp;nbsp; userId: &#39;1111&#39;,&lt;/span&gt;&lt;/div&gt;&lt;div style=&quot;text-align: justify&quot;&gt;&lt;span&gt;&amp;nbsp; name: &#39;john&#39;&lt;/span&gt;&lt;/div&gt;&lt;div style=&quot;text-align: justify&quot;&gt;&lt;span&gt;&amp;nbsp; email: &#39;xyz@xyz&#39;,&lt;/span&gt;&lt;/div&gt;&lt;div style=&quot;text-align: justify&quot;&gt;&lt;span&gt;&amp;nbsp; password: &#39;pass&#39;,&lt;/span&gt;&lt;/div&gt;&lt;div style=&quot;text-align: justify&quot;&gt;&amp;nbsp; redeemed: &quot;$5&quot;&lt;/div&gt;&lt;div style=&quot;text-align: justify&quot;&gt;&lt;span&gt;}&lt;/span&gt;&lt;/div&gt;&lt;/b&gt;&lt;/font&gt;" style="rounded=0;whiteSpace=wrap;html=1;align=center;" parent="1" vertex="1">
          <mxGeometry x="80" y="120" width="160" height="200" as="geometry" />
        </mxCell>
        <mxCell id="Y9Um63weE-IarXxQb-LT-7" value="&lt;b&gt;&lt;font style=&quot;font-size: 15px&quot;&gt;Free Slots?&lt;br&gt;(frontend)&lt;br&gt;&lt;/font&gt;&lt;/b&gt;" style="rounded=0;whiteSpace=wrap;html=1;fillColor=#d5e8d4;strokeColor=#82b366;" parent="1" vertex="1">
          <mxGeometry x="440" y="80" width="160" height="40" as="geometry" />
        </mxCell>
        <mxCell id="Y9Um63weE-IarXxQb-LT-8" value="&lt;b&gt;&lt;font style=&quot;font-size: 14px&quot;&gt;Color only the booked slots&lt;/font&gt;&lt;/b&gt;" style="rounded=0;whiteSpace=wrap;html=1;" parent="1" vertex="1">
          <mxGeometry x="440" y="120" width="160" height="60" as="geometry" />
        </mxCell>
        <mxCell id="Y9Um63weE-IarXxQb-LT-10" value="&lt;b&gt;&lt;font style=&quot;font-size: 14px&quot;&gt;Find all slots by date&lt;/font&gt;&lt;/b&gt;" style="rounded=0;whiteSpace=wrap;html=1;" parent="1" vertex="1">
          <mxGeometry x="670" y="160" width="190" height="60" as="geometry" />
        </mxCell>
        <mxCell id="Y9Um63weE-IarXxQb-LT-11" value="&lt;b&gt;&lt;font style=&quot;font-size: 14px&quot;&gt;Make an array of slots&lt;/font&gt;&lt;/b&gt;" style="rounded=0;whiteSpace=wrap;html=1;" parent="1" vertex="1">
          <mxGeometry x="670" y="220" width="190" height="60" as="geometry" />
        </mxCell>
        <mxCell id="Y9Um63weE-IarXxQb-LT-13" style="edgeStyle=orthogonalEdgeStyle;rounded=0;orthogonalLoop=1;jettySize=auto;html=1;exitX=0.5;exitY=1;exitDx=0;exitDy=0;entryX=1;entryY=0.5;entryDx=0;entryDy=0;" parent="1" source="Y9Um63weE-IarXxQb-LT-12" target="Y9Um63weE-IarXxQb-LT-8" edge="1">
          <mxGeometry relative="1" as="geometry" />
        </mxCell>
        <mxCell id="Y9Um63weE-IarXxQb-LT-12" value="&lt;b&gt;&lt;font style=&quot;font-size: 14px&quot;&gt;Send back the array&lt;/font&gt;&lt;/b&gt;" style="rounded=0;whiteSpace=wrap;html=1;" parent="1" vertex="1">
          <mxGeometry x="670" y="280" width="190" height="60" as="geometry" />
        </mxCell>
        <mxCell id="Y9Um63weE-IarXxQb-LT-14" value="&lt;b&gt;&lt;font style=&quot;font-size: 15px&quot;&gt;Date wise slots (backend)&lt;br&gt;&lt;/font&gt;&lt;/b&gt;" style="rounded=0;whiteSpace=wrap;html=1;fillColor=#d5e8d4;strokeColor=#82b366;" parent="1" vertex="1">
          <mxGeometry x="670" y="120" width="190" height="40" as="geometry" />
        </mxCell>
        <mxCell id="Y9Um63weE-IarXxQb-LT-15" value="&lt;b&gt;&lt;font style=&quot;font-size: 14px&quot;&gt;Find all slots by user&lt;/font&gt;&lt;/b&gt;" style="rounded=0;whiteSpace=wrap;html=1;" parent="1" vertex="1">
          <mxGeometry x="870" y="160" width="190" height="60" as="geometry" />
        </mxCell>
        <mxCell id="Y9Um63weE-IarXxQb-LT-16" value="&lt;b&gt;&lt;font style=&quot;font-size: 14px&quot;&gt;Make an array of slots&lt;/font&gt;&lt;/b&gt;" style="rounded=0;whiteSpace=wrap;html=1;" parent="1" vertex="1">
          <mxGeometry x="870" y="220" width="190" height="60" as="geometry" />
        </mxCell>
        <mxCell id="Y9Um63weE-IarXxQb-LT-17" value="&lt;b&gt;&lt;font style=&quot;font-size: 14px&quot;&gt;Send back the array&lt;/font&gt;&lt;/b&gt;" style="rounded=0;whiteSpace=wrap;html=1;" parent="1" vertex="1">
          <mxGeometry x="870" y="280" width="190" height="60" as="geometry" />
        </mxCell>
        <mxCell id="Y9Um63weE-IarXxQb-LT-18" value="&lt;b&gt;&lt;font style=&quot;font-size: 15px&quot;&gt;User wise slots (backend)&lt;br&gt;&lt;/font&gt;&lt;/b&gt;" style="rounded=0;whiteSpace=wrap;html=1;fillColor=#d5e8d4;strokeColor=#82b366;" parent="1" vertex="1">
          <mxGeometry x="870" y="120" width="190" height="40" as="geometry" />
        </mxCell>
        <mxCell id="Y9Um63weE-IarXxQb-LT-19" value="&lt;b&gt;&lt;font style=&quot;font-size: 14px&quot;&gt;Auth required&lt;/font&gt;&lt;/b&gt;" style="rounded=0;whiteSpace=wrap;html=1;fillColor=#f8cecc;strokeColor=#b85450;" parent="1" vertex="1">
          <mxGeometry x="670" y="80" width="390" height="40" as="geometry" />
        </mxCell>
        <mxCell id="Y9Um63weE-IarXxQb-LT-20" value="&lt;b&gt;&lt;font style=&quot;font-size: 15px&quot;&gt;User&#39;s booked slots&lt;br&gt;(frontend)&lt;br&gt;&lt;/font&gt;&lt;/b&gt;" style="rounded=0;whiteSpace=wrap;html=1;fillColor=#d5e8d4;strokeColor=#82b366;" parent="1" vertex="1">
          <mxGeometry x="440" y="220" width="160" height="40" as="geometry" />
        </mxCell>
        <mxCell id="Y9Um63weE-IarXxQb-LT-21" value="&lt;b&gt;&lt;font style=&quot;font-size: 14px&quot;&gt;Color only the booked slots&lt;/font&gt;&lt;/b&gt;" style="rounded=0;whiteSpace=wrap;html=1;" parent="1" vertex="1">
          <mxGeometry x="440" y="260" width="160" height="60" as="geometry" />
        </mxCell>
      </root>
    </mxGraphModel>
  </diagram>
</mxfile>
